<?xml version="1.0" encoding="UTF-8" standalone="no"?>
<svg
   version="1.1"
   id="Layer_1"
   x="0px"
   y="0px"
   viewBox="0 0 108.24 122.88"
   style="enable-background:new 0 0 108.24 122.88"
   xml:space="preserve"
   sodipodi:docname="icon-2.svg"
   inkscape:version="1.3 (0e150ed6c4, 2023-07-21)"
   xmlns:inkscape="http://www.inkscape.org/namespaces/inkscape"
   xmlns:sodipodi="http://sodipodi.sourceforge.net/DTD/sodipodi-0.dtd"
   xmlns="http://www.w3.org/2000/svg"
   xmlns:svg="http://www.w3.org/2000/svg"><defs
     id="defs1"><clipPath
       clipPathUnits="userSpaceOnUse"
       id="clipPath63"><path
         id="path64"
         style="fill:#ff0000;fill-opacity:1;fill-rule:nonzero;stroke:none"
         d="M 0.00390625,0 V 26.263672 C 0.04642131,26.205581 0.07868197,26.157285 0.125,26.095703 1.148171,24.73535 2.3999918,23.578227 3.8378906,22.667969 c 0.859761,-0.516452 1.7844569,-1.03927 2.6582032,-1.466797 0.8194892,-0.400989 1.612967,-0.72491 2.3828124,-0.992188 0.00417,-0.0029 0.00754,-0.0069 0.011719,-0.0098 1.8867568,-1.311365 4.0463778,-2.158705 6.2246088,-2.845703 2.153801,-0.627833 4.340057,-1.127834 6.542969,-1.552735 1.024699,-0.231775 2.045863,-0.476998 3.064453,-0.734375 1.346727,-0.340279 2.599944,-0.521145 3.751953,-0.566406 0.704327,-0.02767 1.37011,-0.0038 1.998047,0.06445 -0.02355,-0.09391 -0.062,-0.183039 -0.08398,-0.277344 C 29.976671,12.52051 29.961327,11.380543 30.212891,10.666016 29.989929,10.4519 29.778559,10.236198 29.578125,10.021484 29.048952,9.8002551 28.518171,9.582636 27.994141,9.3496094 27.675459,9.2079002 27.361206,9.055185 27.044922,8.9082031 c -1.091711,-0.5073386 -0.825593,-1.4697528 0.0332,-1.4785156 0.198191,-0.00202 0.427749,0.047019 0.679687,0.1640625 0.0058,0.0027 0.01176,0.00511 0.01758,0.00781 C 26.077837,4.6017986 26.43139,1.7941124 28.160156,0 Z M 60.244141,0 c 0.895417,0.92172638 1.796285,1.8381007 2.736328,2.7148438 0.185512,0.1694792 0.371139,0.3383335 0.55664,0.5078124 -0.0066,0.00431 -0.02413,0.00727 -0.01953,0.013672 0.01953,0.027084 0.107048,0.077171 0.07617,0.064453 -0.08401,-0.034613 -0.313391,-0.1839414 -0.238281,-0.1328124 0.231858,0.15783 0.502401,0.2563006 0.730469,0.4199218 1.211923,0.7094763 2.403161,1.4537553 3.529296,2.2949219 1.404418,0.9894875 2.851896,1.9351763 4.09961,3.125 0.239392,0.2392109 0.483164,0.4719592 0.716797,0.7167969 0.329388,0.3451886 0.617422,0.7259566 0.923828,1.0917966 0.855373,-0.408125 1.800249,-0.607663 2.791015,-0.550781 2.922766,0.167802 6.193955,2.470699 8.404297,7.568359 0.634306,1.462885 1.224078,2.944556 1.824219,4.421875 -0.0043,-0.434395 -0.01448,-0.868283 -0.01563,-1.302734 -0.01936,-7.408296 3.702949,-11.1133025 7.439453,-11.1132812 2.066521,1.16e-5 4.13502,1.1380282 5.580078,3.4042972 0.574006,-0.189721 1.17645,-0.298127 1.79882,-0.298829 2.40245,-0.0027 5.04675,1.440309 7.05274,4.533204 V 0 Z m 0.142578,19.105469 c 0.765694,1.026394 1.541524,2.046663 2.330078,3.05664 0.306523,0.399879 0.639528,0.777357 0.957031,1.167969 -0.02867,-0.161728 -0.04618,-0.326896 -0.08008,-0.443359 -0.01908,-0.06554 -0.06331,-0.119608 -0.0957,-0.179688 -0.19127,-0.354838 -0.412261,-0.689361 -0.628906,-1.029297 -0.297514,-0.436259 -0.615191,-0.857722 -0.955079,-1.261718 -0.197348,-0.234579 -0.3974,-0.49253 -0.640624,-0.683594 -0.290385,-0.215691 -0.591002,-0.417992 -0.88672,-0.626953 z m -1.166016,21.576172 c -0.232603,0.01878 -0.464666,0.04259 -0.697265,0.06055 -1.335748,0.125325 -2.680693,0.117029 -4.015626,0.246093 -1.279715,0.15442 -2.562875,0.288583 -3.839843,0.464844 -0.955796,0.142401 -1.904421,0.321307 -2.853516,0.501953 -0.998366,0.20012 -1.995727,0.40778 -2.992187,0.617188 -1.380441,0.242515 -2.766833,0.44382 -4.150391,0.669922 -0.466594,0.07623 -0.930928,0.165073 -1.394531,0.257812 -0.01506,0.05436 -0.03523,0.107366 -0.04883,0.162109 -0.212205,0.824072 -0.422274,1.648935 -0.603516,2.480469 -0.164259,0.845086 -0.360876,1.683493 -0.521484,2.529297 -0.194014,0.965766 -0.417681,1.925854 -0.673828,2.876953 -0.255699,0.904704 -0.571853,1.786371 -0.941407,2.650391 -0.246831,0.496074 -0.489905,0.99456 -0.708984,1.503906 -0.288163,0.688315 -0.570045,1.380863 -0.835938,2.078125 -0.04313,0.119271 -0.08693,0.237741 -0.128906,0.357422 -0.219984,0.627206 -0.07728,0.235727 -0.05078,0.216797 0.02161,-0.01542 0.02584,0.04965 0.02539,0.07617 -0.0039,0.226916 -0.02601,0.4531 -0.03906,0.679687 -0.0853,1.68429 -0.116848,3.370565 -0.142578,5.056641 -0.03293,1.253192 -0.09212,2.504801 -0.13086,3.757812 -0.03048,0.715224 -0.113118,1.428762 -0.236328,2.134766 0.505987,0.913045 0.804328,1.461533 1.558594,2.867187 1.859017,0.695953 3.843159,2.046626 5.789063,4.201172 0.425751,0.471406 0.929348,0.862193 1.408203,1.277344 0.230505,0.145657 -0.08501,-0.05501 0.302734,0.205078 0.02424,0.01626 0.889103,0.60318 0.628906,0.373047 -0.01218,-0.01318 -0.05309,-0.03976 -0.03516,-0.03906 0.05713,0.0022 0.109633,0.02743 0.164063,0.04492 0.190519,0.06122 0.381005,0.126517 0.570312,0.191407 0.725391,0.248645 1.448099,0.500596 2.171875,0.753906 1.178196,0.435601 2.354681,0.880649 3.525391,1.335937 1.012143,0.402598 2.061726,0.695289 3.109375,0.988282 1.189249,0.283646 2.371664,0.592549 3.578125,0.794922 1.217625,0.168829 2.44988,0.19177 3.677734,0.222656 0.213462,-0.403015 0.419262,-0.810556 0.644531,-1.207032 0.652903,-1.173513 1.399865,-2.288534 2.195313,-3.36914 0.942404,-1.300477 2.098678,-2.411806 3.304687,-3.462891 1.027156,-0.884311 2.115636,-1.681028 3.25586,-2.412109 0.837407,-0.528171 1.660685,-1.07308 2.443359,-1.679688 0.698861,-0.54422 1.367026,-1.132331 1.96875,-1.783203 0.207042,-0.24824 0.422035,-0.520348 0.568359,-0.8125 0.02434,-0.0486 -0.07297,0.08264 -0.11914,0.111328 -0.179983,0.125656 0.141695,-0.760783 -0.05469,-0.52539 -0.01825,0.0013 -0.04659,0.02036 -0.05469,0.0039 -0.05372,-0.109074 -0.07616,-0.231876 -0.113281,-0.347656 -0.06983,-0.217832 -0.135722,-0.436946 -0.207032,-0.654297 C 74.223644,66.23091 73.905067,65.330223 73.591789,64.42773 72.992917,62.770926 72.509442,61.074328 72.041008,59.376949 71.659991,57.983271 71.352755,56.571568 71.074211,55.154293 70.78684,53.545622 70.621237,51.917324 70.42968,50.294918 70.33785,49.598836 70.282548,48.898952 70.234367,48.199215 69.707942,47.879724 69.182927,47.559379 68.671867,47.21484 67.712789,46.616553 66.752639,46.020311 65.779289,45.445308 65.05339,44.972617 64.299538,44.5447 63.572258,44.074215 62.850345,43.591684 62.118744,43.121596 61.435539,42.58398 60.655328,42.000021 59.89887,41.379904 59.220695,40.681637 Z m -20.466797,2.925781 c -0.02785,0.0062 -0.05622,0.01104 -0.08398,0.01758 -0.202673,0.04771 -0.224671,-0.0018 -0.181641,0.07031 0.01542,0.06846 0.138286,0.01617 0.166016,0.002 0.03579,-0.02741 0.06565,-0.06066 0.09961,-0.08984 z m 63.917974,14.175781 c 1e-4,0.154305 -1e-4,0.308583 0,0.462891 1.2e-4,0.203751 -1.2e-4,0.407567 0,0.611328 0.26704,0.659218 0.54357,1.314597 0.80859,1.974609 0.66242,1.718592 1.34354,3.42892 2.02344,5.140625 0.59685,1.473974 1.16012,2.96212 1.71289,4.453125 0.34956,1.044208 0.68128,2.094539 1.01367,3.144531 V 61.716797 c -2.10166,-0.13653 -4.17183,-1.443058 -5.55859,-3.933594 z M 0.00390625,63.017578 V 77.779297 C 0.57389257,76.449961 1.1985984,75.143793 1.8496094,73.853516 2.356105,72.888588 2.8644024,71.923976 3.375,70.960938 2.6909685,69.383134 2.2422082,67.439694 2.1621094,65.099609 2.1551794,64.897127 2.158533,64.69461 2.1523438,64.492188 1.385582,64.17298 0.66022304,63.675209 0.00390625,63.017578 Z M 87.642578,76.654297 c -0.670716,1.10221 -1.469293,2.126923 -2.34375,3.072265 -0.752879,0.774352 -1.544985,1.506951 -2.361328,2.212891 1.180077,0.03484 2.359633,0.08795 3.539062,0.154297 0.305488,0.01405 0.608938,0.05013 0.914063,0.06836 0.0042,-0.184038 4.74e-4,-0.360216 0.0098,-0.548828 0.05122,-1.043485 0.02319,-0.502148 0.08008,-1.61914 0.05834,-1.113001 0.116825,-2.225956 0.162109,-3.339844 z m -74.71289,9.183594 c -0.08992,0.275826 -0.175154,0.552706 -0.283204,0.896484 -0.331861,1.196452 -0.630166,2.437584 -0.591796,3.689453 0.0056,0.184504 0.03144,0.368797 0.04687,0.552734 0.235217,0.680766 0.726878,1.202908 1.220704,1.707032 0.414751,0.38555 0.846303,0.750988 1.287109,1.105468 -0.624412,-2.636118 -1.258247,-5.274197 -1.679687,-7.951171 z m 33.568359,9.945312 c 0.108531,0.276689 0.235715,0.545779 0.339844,0.824219 0.343674,0.895199 0.655653,1.801538 0.976562,2.705078 0.04363,0.07862 0.09209,0.155208 0.130859,0.236328 0.460884,0.964322 0.888596,1.941912 1.378907,2.892582 0.445049,0.86292 0.740424,1.36394 1.222656,2.21484 0.757123,1.26067 1.456223,2.56675 2.306641,3.76953 0.196789,0.27834 0.397587,0.49525 0.621093,0.75 0.186833,0.2049 0.383102,0.43775 0.597657,0.6211 0.253969,0.21695 0.0065,-9.5e-4 0.15039,0.0703 0.121258,0.0603 0.2351,0.13732 0.353516,0.20312 0.221182,0.12778 0.452851,0.23631 0.68164,0.34961 -0.0075,-1.11981 -0.01794,-2.23962 -0.02148,-3.35937 -0.01729,-1.99662 0.241799,-3.97878 0.521484,-5.95117 0.159744,-1.02963 0.36037,-2.052407 0.554688,-3.076177 -0.623803,-0.05826 -1.246192,-0.129199 -1.865234,-0.232422 -1.702347,-0.301648 -3.382508,-0.69808 -5.056641,-1.128906 -0.970685,-0.273044 -1.935624,-0.569429 -2.892578,-0.888672 z m 35.798828,1.105469 c -1.113091,-0.02967 -2.227073,-0.03296 -3.341797,0.01172 -1.457824,0.02771 -2.919041,0.04482 -4.371094,0.189453 -0.976416,0.114376 -1.949331,0.25856 -2.921875,0.402344 -0.137427,0.695857 -0.281584,1.390345 -0.419921,2.085937 -0.23716,1.211884 -0.471228,2.425294 -0.667969,3.644534 -0.180463,1.25635 -0.373094,2.51868 -0.371094,3.79101 0.0056,1.75386 0.01236,3.50794 0.03125,5.26172 0.0039,0.31712 0.01529,0.63406 0.01953,0.95117 0.327428,-0.0331 0.655618,-0.0597 0.980469,-0.11523 9.9723,-1.70462 14.231548,4.77907 11.269531,9.76953 H 108.23047 V 98.933594 c -0.008,0.0011 -0.0114,0.0028 -0.0195,0.0039 -1.33805,0.184245 -2.68927,0.195896 -4.03711,0.166016 -1.95608,-0.05859 -3.91094,-0.193535 -5.845705,-0.5 -1.954663,-0.294244 -3.899858,-0.647721 -5.859375,-0.910157 -2.269435,-0.305054 -4.544999,-0.555265 -6.833984,-0.65625 -1.112578,-0.06271 -2.2248,-0.118766 -3.337891,-0.148437 z m -50.800781,1.791016 c 0.02602,0.09256 0.01871,0.06831 0.05664,0.203124 3.486252,12.391528 -6.928681,17.067778 -12.353515,8.730468 -2.501552,2.47734 -7.392993,2.86938 -12.8457034,-1.2832 -1.5560455,-1.18505 -3.0636625,-2.43683 -4.3808594,-3.89063 -0.8954,-1.07821 -1.32374893,-1.54374 -1.96874995,-2.548825 V 122.88086 H 46.837891 c -0.610021,-0.37506 -0.954525,-0.57085 -1.546875,-1.00391 -1.227533,-0.89742 -2.330492,-1.94173 -3.304688,-3.10937 -0.787147,-0.95991 -0.920857,-1.08414 -1.642578,-2.125 -1.03059,-1.4863 -1.910111,-3.07433 -2.830078,-4.62891 -1.403973,-2.49481 -2.722244,-5.03917 -3.802734,-7.69336 -0.296064,-0.83407 -0.58442,-1.67205 -0.902344,-2.49804 -0.355948,-0.96731 -0.766604,-1.913192 -1.183594,-2.855473 -0.04212,-0.09609 -0.08663,-0.1911 -0.128906,-0.287109 z" /></clipPath></defs><sodipodi:namedview
     id="namedview1"
     pagecolor="#ffffff"
     bordercolor="#000000"
     borderopacity="0.25"
     inkscape:showpageshadow="2"
     inkscape:pageopacity="0.0"
     inkscape:pagecheckerboard="0"
     inkscape:deskcolor="#d1d1d1"
     inkscape:zoom="6.6813153"
     inkscape:cx="48.119268"
     inkscape:cy="57.398878"
     inkscape:window-width="1920"
     inkscape:window-height="1017"
     inkscape:window-x="-8"
     inkscape:window-y="-8"
     inkscape:window-maximized="1"
     inkscape:current-layer="Layer_1" /><style
     type="text/css"
     id="style1"><![CDATA[
	.st0{fill-rule:evenodd;clip-rule:evenodd;}
]]></style><g
     id="g1"
     transform="matrix(1.904449,0,0,2.0609013,-50.143499,-60.317465)"><path
       class="st0"
       d="m 54.12,0 c 5.65,0 10.45,7.29 13.65,19.07 1.11,4.09 2.06,8.76 2.81,13.87 4.8,-1.9 9.32,-3.41 13.41,-4.5 11.79,-3.12 20.5,-2.6 23.33,2.29 2.82,4.89 -1.09,12.69 -9.69,21.34 -2.98,3 -6.55,6.16 -10.61,9.37 1.62,1.28 3.17,2.56 4.63,3.82 -1.33,0.93 -2.42,2.16 -3.18,3.6 -1.68,-1.45 -3.48,-2.92 -5.38,-4.41 -0.39,0.29 -0.79,0.58 -1.19,0.88 -0.86,6.19 -3.74,11.73 -7.95,15.94 l -0.24,0.22 c -0.74,0.72 -1.51,1.4 -2.32,2.03 -0.05,0.5 -0.11,1 -0.17,1.5 5.03,2.04 9.75,3.64 13.99,4.76 9.61,2.54 16.34,2.73 17.94,-0.03 0.85,-1.47 0.25,-3.78 -1.54,-6.68 1.45,-0.63 2.73,-1.59 3.75,-2.78 2.89,4.73 3.7,8.84 1.96,11.85 -2.82,4.9 -11.52,5.42 -23.32,2.3 -4.09,-1.08 -8.61,-2.6 -13.42,-4.5 -0.75,5.11 -1.7,9.78 -2.81,13.87 -3.2,11.78 -8,19.07 -13.65,19.07 -5.65,0 -10.45,-7.29 -13.65,-19.07 -1.11,-4.09 -2.06,-8.76 -2.81,-13.87 -1.74,0.69 -3.44,1.33 -5.09,1.91 -0.13,-1.67 -0.66,-3.22 -1.49,-4.57 1.92,-0.68 3.9,-1.43 5.94,-2.26 -0.06,-0.49 -0.11,-0.99 -0.17,-1.49 -0.89,-0.7 -1.74,-1.45 -2.54,-2.25 L 34.29,81.26 C 30.08,77.05 27.2,71.51 26.34,65.32 25.94,65.03 25.54,64.73 25.15,64.44 20.86,67.78 17.11,71.07 14.02,74.18 7,81.26 3.47,87 5.07,89.77 c 0.89,1.54 3.37,2.16 7.05,1.97 -0.03,0.3 -0.04,0.61 -0.04,0.92 0,1.31 0.25,2.56 0.69,3.71 C 6.9,96.63 2.71,95.29 0.91,92.17 -1.91,87.27 2,79.47 10.6,70.82 c 2.99,-3 6.55,-6.16 10.61,-9.37 C 17.16,58.24 13.59,55.08 10.6,52.08 2,43.43 -1.91,35.63 0.91,30.74 c 2.83,-4.89 11.53,-5.41 23.33,-2.29 4.09,1.08 8.61,2.59 13.42,4.5 0.27,-1.85 0.57,-3.64 0.89,-5.36 1.39,0.7 2.95,1.09 4.61,1.09 h 0.09 c -0.37,1.97 -0.7,4.04 -1,6.18 0.45,0.19 0.89,0.39 1.34,0.59 3.25,-1.32 6.8,-2.05 10.52,-2.05 3.72,0 7.28,0.73 10.53,2.04 0.44,-0.2 0.89,-0.39 1.33,-0.58 C 65.22,29.47 64.25,24.58 63.1,20.35 60.5,10.77 57.3,4.84 54.11,4.84 52.34,4.84 50.56,6.67 48.89,9.93 47.6,9.06 46.11,8.47 44.49,8.26 47.22,2.99 50.49,0 54.12,0 Z m 0,45.2 c 7.06,0 12.79,2.68 12.79,5.98 0,3.31 -5.73,5.98 -12.79,5.98 -7.06,0 -12.79,-2.68 -12.79,-5.98 0,-3.3 5.73,-5.98 12.79,-5.98 z M 41.33,67.64 v 4.59 c 2.28,8.08 24.75,6.52 25.58,-0.41 v -4.59 c -1.12,7.61 -23.78,8.16 -25.58,0.41 z M 41.27,54.06 v 4.49 c 2.28,7.89 24.88,6.83 25.71,0.06 v -4.48 c -1.13,7.43 -23.91,7.5 -25.71,-0.07 z m 0,6.61 v 4.59 c 2.28,8.08 24.88,6.99 25.71,0.06 V 60.73 C 65.85,68.34 43.07,68.42 41.27,60.67 Z M 54.12,37.41 c 13.27,0 24.03,10.76 24.03,24.03 0,13.27 -10.76,24.03 -24.03,24.03 -13.27,0 -24.03,-10.76 -24.03,-24.03 0,-13.27 10.76,-24.03 24.03,-24.03 z m 17.27,1.93 c 0.9,0.7 1.76,1.46 2.56,2.27 4.21,4.21 7.09,9.76 7.95,15.95 0.4,0.29 0.8,0.58 1.19,0.88 4.29,-3.34 8.04,-6.63 11.13,-9.74 7,-7.05 10.53,-12.79 8.94,-15.56 -1.6,-2.76 -8.33,-2.57 -17.94,-0.03 -4.24,1.12 -8.96,2.72 -13.99,4.77 0.05,0.47 0.11,0.97 0.16,1.46 z m -6.78,48.12 c -3.24,1.31 -6.78,2.03 -10.48,2.03 -3.71,0 -7.25,-0.72 -10.49,-2.04 -0.46,0.2 -0.92,0.41 -1.38,0.6 0.75,5.39 1.72,10.28 2.87,14.51 2.6,9.58 5.8,15.51 9,15.51 3.19,0 6.4,-5.93 8.99,-15.51 1.14,-4.23 2.11,-9.13 2.86,-14.51 v 0 C 65.52,87.86 65.06,87.66 64.61,87.46 Z M 26.35,57.54 c 0.86,-6.18 3.74,-11.73 7.95,-15.93 l 0.24,-0.22 c 0.73,-0.71 1.5,-1.39 2.3,-2.02 0.05,-0.5 0.11,-1 0.17,-1.5 C 31.97,35.83 27.26,34.23 23.02,33.1 13.41,30.56 6.68,30.37 5.08,33.13 3.47,35.9 7,41.64 14.01,48.69 c 3.09,3.11 6.84,6.4 11.13,9.74 v 0 c 0.4,-0.3 0.8,-0.59 1.21,-0.89 z m 70.45,9.21 c 3.67,0 6.65,2.98 6.65,6.65 0,3.67 -2.98,6.65 -6.65,6.65 -3.67,0 -6.65,-2.98 -6.65,-6.65 0,-3.67 2.97,-6.65 6.65,-6.65 z M 22.35,85.8 c 3.67,0 6.65,2.98 6.65,6.65 0,3.67 -2.98,6.65 -6.65,6.65 -3.67,0 -6.65,-2.98 -6.65,-6.65 0,-3.67 2.98,-6.65 6.65,-6.65 z m 20.8,-74.04 c 3.67,0 6.65,2.98 6.65,6.65 0,3.67 -2.98,6.65 -6.65,6.65 -3.67,0 -6.65,-2.98 -6.65,-6.65 0,-3.67 2.98,-6.65 6.65,-6.65 z"
       id="path1"
       clip-path="url(#clipPath63)" /></g><path
     style="fill:#ffdd55;fill-rule:evenodd;stroke:#ffdd55;stroke-width:1.75363"
     d="M 48.792788,57.23352 C 40.655641,56.52279 33.57426,53.6134 30.428853,49.688684 26.097548,44.284252 30.024886,38.106259 39.841791,34.881436 c 4.048144,-1.329803 8.058056,-1.91856 13.066953,-1.91856 6.386509,0 11.90437,1.089603 16.482864,3.254844 2.345636,1.109288 3.676457,2.014184 5.150465,3.502076 1.380764,1.39377 2.076995,2.523567 2.459055,3.990393 1.110434,4.263246 -2.67004,8.648675 -9.749922,11.310114 -5.091604,1.914012 -12.168745,2.762582 -18.458418,2.213217 z"
     id="path65" /><path
     style="fill:#ffdd55;fill-rule:evenodd;stroke:#ffdd55;stroke-width:1.75363"
     d="M 48.568281,71.524714 C 46.643518,71.328879 43.539288,70.814401 41.982752,70.433264 35.71073,68.897476 31.142158,65.942815 29.302996,62.232806 l -0.640975,-1.292991 -0.04391,-4.414022 -0.04391,-4.414022 0.637781,1.243915 c 2.036022,3.97101 7.359288,7.084246 14.566828,8.519201 3.5958,0.71589 5.006862,0.837324 9.728624,0.837229 3.386219,-6.9e-5 4.768227,-0.06002 6.286187,-0.272694 9.356763,-1.31093 15.553676,-4.731594 17.282901,-9.540072 l 0.292658,-0.813797 0.0054,4.196764 c 0.0058,4.540902 -0.08675,5.284681 -0.827225,6.645184 -1.80844,3.322702 -6.244757,5.959569 -12.562941,7.467187 -3.684166,0.8791 -5.680395,1.097563 -10.476979,1.146581 -2.387255,0.0244 -4.609871,0.01695 -4.939148,-0.01655 z"
     id="path66" /><path
     style="fill:#ffdd55;fill-rule:evenodd;stroke:#ffdd55;stroke-width:1.75363"
     d="M 49.7529,85.676954 C 39.155443,84.999965 31.449389,81.223894 29.012524,75.51389 l -0.41724,-0.977668 -0.004,-4.393094 -0.004,-4.393095 0.687416,1.37318 c 1.596433,3.18903 5.221542,5.81974 10.388247,7.538663 3.719723,1.237523 7.538284,1.854402 12.347868,1.994768 10.418766,0.304068 19.527742,-2.497943 23.401104,-7.198411 0.681803,-0.827393 1.469401,-2.232559 1.763341,-3.146007 0.167937,-0.521878 0.190366,0.04143 0.160586,4.033205 -0.03276,4.390495 -0.05259,4.687744 -0.369137,5.531974 -2.004299,5.345469 -10.17494,9.095776 -21.363786,9.805933 -2.616665,0.166079 -3.159498,0.165488 -5.849925,-0.0064 z"
     id="path67" /><path
     style="fill:#ffdd55;fill-rule:evenodd;stroke:#ffdd55;stroke-width:1.75363"
     d="m 48.779144,99.597755 c -3.315792,-0.199869 -6.371985,-0.748356 -9.190306,-1.649356 -5.259629,-1.681472 -8.491295,-4.08975 -10.227783,-7.621872 l -0.699034,-1.421876 -0.03786,-4.56497 -0.03786,-4.564969 0.434291,1.007445 c 1.849031,4.289277 6.786663,7.40455 14.159522,8.933588 7.327255,1.51958 16.240793,1.05512 23.00883,-1.198928 2.367524,-0.788487 4.075886,-1.598233 5.81625,-2.75684 2.620984,-1.74486 4.07465,-3.458789 4.949446,-5.835594 l 0.275436,-0.748356 -0.04037,4.639805 c -0.03903,4.485978 -0.05217,4.669579 -0.396399,5.537832 -2.220641,5.601165 -10.765409,9.525048 -22.313026,10.246469 -2.675382,0.167141 -2.890362,0.167051 -5.701147,-0.0024 z"
     id="path68" /></svg>
