<?xml version="1.0" encoding="UTF-8" standalone="no"?>
<svg
   width="16"
   height="16"
   viewBox="0 0 12 12"
   version="1.1"
   id="svg1"
   sodipodi:docname="icon-4.svg"
   inkscape:version="1.3 (0e150ed6c4, 2023-07-21)"
   xmlns:inkscape="http://www.inkscape.org/namespaces/inkscape"
   xmlns:sodipodi="http://sodipodi.sourceforge.net/DTD/sodipodi-0.dtd"
   xmlns="http://www.w3.org/2000/svg"
   xmlns:svg="http://www.w3.org/2000/svg">
  <defs
     id="defs1" />
  <sodipodi:namedview
     id="namedview1"
     pagecolor="#ffffff"
     bordercolor="#000000"
     borderopacity="0.25"
     inkscape:showpageshadow="2"
     inkscape:pageopacity="0.0"
     inkscape:pagecheckerboard="0"
     inkscape:deskcolor="#d1d1d1"
     inkscape:zoom="51.3125"
     inkscape:cx="8"
     inkscape:cy="8"
     inkscape:window-width="1920"
     inkscape:window-height="1017"
     inkscape:window-x="-8"
     inkscape:window-y="-8"
     inkscape:window-maximized="1"
     inkscape:current-layer="svg1" />
  <path
     style="fill:none;stroke:#000;stroke-width:.60000002;stroke-linecap:round;stroke-linejoin:round;stroke-miterlimit:10;stroke-dasharray:none;stroke-opacity:1"
     d="M6 1v2.5m0 5V11M3.5 1h5m-5 10h5m0-2.5v-5h-5v5h5"
     id="path1" />
  <path
     style="fill:#ffdd55;fill-rule:evenodd;stroke:#ffdd55;stroke-width:0.228337"
     d="M 4.5101926,15.017923 C 4.355802,14.947801 4.2519024,14.754085 4.2865744,14.600998 c 0.034314,-0.151504 0.1378308,-0.268823 0.269451,-0.305378 0.046923,-0.01303 0.5964085,-0.02017 1.5584691,-0.02024 l 1.4859927,-1.09e-4 V 12.998782 11.72229 L 6.0950061,11.721862 C 4.6726577,11.721458 4.5851442,11.719462 4.5101926,11.685402 4.4038152,11.637082 4.3134916,11.523393 4.28835,11.406162 4.259986,11.273907 4.259986,4.7260934 4.28835,4.593838 4.313492,4.4766067 4.4038152,4.3629135 4.5101926,4.314598 4.5851446,4.280556 4.6726577,4.278543 6.0950061,4.278138 L 7.6004872,4.27771 V 3.001218 1.7247259 L 6.1144945,1.7246173 C 5.1524339,1.7245469 4.6029481,1.7174116 4.5560254,1.7043799 4.4244052,1.6678254 4.3208881,1.5505058 4.2865744,1.3990017 4.2519024,1.2459151 4.355802,1.0521994 4.5101926,0.98207675 4.5863961,0.94746592 4.724036,0.9460448 8,0.9460448 c 3.275964,0 3.413604,0.001421 3.489807,0.036032 0.165553,0.0751925 0.257167,0.260676 0.21844,0.4422571 -0.02455,0.1151011 -0.148306,0.2484052 -0.258795,0.2787591 -0.05347,0.014688 -0.544742,0.02145 -1.5639465,0.021524 L 8.3995128,1.7247259 V 3.001218 4.2777101 l 1.5054811,4.28e-4 c 1.4223481,4.044e-4 1.5098621,0.00242 1.5848131,0.03646 0.106378,0.048316 0.196701,0.1620087 0.221843,0.27924 0.02836,0.1322554 0.02836,6.6800689 0,6.8123239 -0.02514,0.117231 -0.115465,0.230924 -0.221843,0.27924 -0.07495,0.03404 -0.162465,0.03606 -1.5848131,0.03646 l -1.5054811,4.28e-4 v 1.276492 1.276492 l 1.4859927,1.09e-4 c 1.0192045,7.4e-5 1.5104795,0.0068 1.5639465,0.02152 0.110489,0.03035 0.234246,0.163658 0.258795,0.278759 0.03873,0.181581 -0.05289,0.367065 -0.21844,0.442257 -0.0762,0.03461 -0.213843,0.03603 -3.489807,0.03603 -3.275964,0 -3.4136039,-0.0014 -3.4898074,-0.03603 z M 10.952497,8 V 5.0572473 H 8 5.047503 V 8 10.942753 H 8 10.952497 Z"
     id="path2"
     transform="scale(0.75)" />
</svg>
